Coordinates
version=1
nRows=19
nColumns=36
inDegrees=yes

Units are S.I. units (second, meters, Newtons, ...)
If the header above contains a line with 'inDegrees', this indicates whether rotational values are in degrees (yes) or radians (no).

endheader
time	pelvis_tilt	pelvis_list	pelvis_rotation	pelvis_tx	pelvis_ty	pelvis_tz	hip_flexion_r	hip_adduction_r	hip_rotation_r	knee_angle_r	knee_angle_r_beta	ankle_angle_r	subtalar_angle_r	mtp_angle_r	hip_flexion_l	hip_adduction_l	hip_rotation_l	knee_angle_l	knee_angle_l_beta	ankle_angle_l	subtalar_angle_l	mtp_angle_l	lumbar_extension	lumbar_bending	lumbar_rotation	arm_flex_r	arm_add_r	arm_rot_r	elbow_flex_r	pro_sup_r	arm_flex_l	arm_add_l	arm_rot_l	elbow_flex_l	pro_sup_l
      1.08000000	     -0.16818794	     -0.72407574	      6.63378240	      1.07149143	      0.95937808	     -0.17792099	     26.75301351	     -0.36679156	      4.37728722	     15.77647780	      0.27535148	      3.67736426	     -1.61767115	     -7.42993996	     -9.69865854	      2.72704408	      7.38844410	      3.54085935	      0.06179965	     17.33510819	     13.12021429	     -7.42993996	     -5.63080809	     -1.32899661	     -2.27099471	      2.62465633	     -7.21219582	     -1.56133718	     35.73976168	    109.95247513	     -1.08259279	    -16.11272255	     19.54965988	     32.59350397	    106.41453264
      1.09000000	     -0.37510678	     -0.62903199	      7.10481640	      1.08264893	      0.95726711	     -0.17758814	     26.59937725	     -0.71602702	      4.39204511	     12.31496323	      0.21493666	      3.68421775	     -0.06797523	     -7.43147773	    -10.33778681	      2.59174856	      7.31525173	      3.30458106	      0.05767582	     17.83126101	     13.78315857	     -7.43147773	     -5.50331594	     -1.57192454	     -2.85876219	      2.37732272	     -7.11639606	     -1.80594162	     35.42717318	    109.92910475	     -0.43486435	    -16.26906077	     19.39793794	     32.71275525	    106.42125499
      1.10000000	     -0.68629754	     -0.51444575	      7.54989159	      1.09389504	      0.95491631	     -0.17724793	     26.62182237	     -1.08311305	      4.35500541	      9.37853518	      0.16368632	      3.89017003	      1.25246839	     -7.43228011	    -10.76437755	      2.51197511	      7.31652733	      3.28289925	      0.05729740	     18.23418875	     14.26299903	     -7.43228011	     -5.22661969	     -1.83783611	     -3.41836755	      2.05375245	     -7.05117958	     -1.97640325	     35.20493798	    109.91295509	      0.14543612	    -16.42534330	     19.27509670	     32.82931070	    106.42424483
      1.11000000	     -0.86943756	     -0.50043563	      8.04883231	      1.10515568	      0.95274680	     -0.17690081	     26.52086442	     -1.32876890	      4.17408564	      6.90588225	      0.12053038	      4.12569773	      2.67120879	     -7.43303674	    -11.23942299	      2.28551211	      7.34667250	      3.41803941	      0.05965604	     18.73443790	     14.75469811	     -7.43303674	     -5.12347269	     -1.95934601	     -4.01536166	      1.83532075	     -6.97990879	     -2.15453021	     34.97027771	    109.89914534	      0.79874103	    -16.48170373	     19.17872409	     32.92894170	    106.42831891
      1.12000000	     -0.85524641	     -0.51574832	      8.54021032	      1.11670998	      0.95086894	     -0.17670886	     26.37605498	     -1.54737866	      2.93563712	      5.28863508	      0.09230410	      5.02169203	      5.30464429	     -7.43615024	    -11.82101499	      1.99963006	      6.81161489	      3.75142487	      0.06547472	     19.63730467	     16.12371712	     -7.43615024	     -5.22364162	     -1.98527528	     -4.55264495	      1.58362217	     -6.93138316	     -2.46322537	     34.76196559	    109.94822309	      1.48559067	    -16.48354771	     19.14381823	     32.91218237	    106.45467557
      1.13000000	     -1.06550146	     -0.50280367	      8.95888610	      1.12824683	      0.94871563	     -0.17631089	     26.44014277	     -1.68099262	      2.83762571	      4.14869263	      0.07240835	      5.37921701	      5.58309370	     -7.43651249	    -12.13196307	      1.81855960	      6.90377217	      4.14633418	      0.07236718	     19.86129009	     16.12140029	     -7.43651249	     -5.06015291	     -2.09163116	     -5.01108493	      1.27842839	     -6.92154868	     -2.49005003	     34.56534888	    109.94705453	      2.07194303	    -16.50459527	     19.09401625	     33.03421709	    106.46346546
      1.14000000	     -1.09965232	     -0.63109723	      9.44632142	      1.13988054	      0.94693700	     -0.17600857	     26.27929587	     -1.64540323	      2.73743939	      3.49513766	      0.06100166	      5.71353553	      5.89457464	     -7.43700683	    -12.50892620	      1.44754642	      7.09546405	      4.76435349	      0.08315366	     20.28151562	     16.09077788	     -7.43700683	     -5.11596766	     -1.95931034	     -5.61323581	      1.11371182	     -6.93325791	     -2.54388711	     34.34507997	    109.94559763	      2.64275984	    -16.44985614	     19.09583299	     33.03294607	    106.47475544
      1.15000000	     -1.06020517	     -0.79485893	      9.92232329	      1.15168660	      0.94537870	     -0.17573949	     26.07663775	     -1.53648739	      2.46112044	      3.41817317	      0.05965838	      6.02871718	      5.96611496	     -7.43770767	    -12.91117969	      1.02680395	      7.20642966	      5.46241194	      0.09533707	     20.76887301	     16.02236092	     -7.43770767	     -5.22215190	     -1.75156919	     -6.18998604	      0.97302568	     -6.95563677	     -2.56479245	     34.10165989	    109.94987556	      3.19931643	    -16.35120472	     19.14752455	     32.96229471	    106.49785024
      1.16000000	     -1.04405861	     -0.99682741	     10.30306870	      1.16374809	      0.94395302	     -0.17534843	     25.89824891	     -1.32062475	      2.52593159	      3.78801243	      0.06611329	      6.08967110	      5.84864368	     -7.43797913	    -13.29739826	      0.57745513	      7.36904158	      6.12865397	      0.10696519	     20.77739623	     15.98474292	     -7.43797913	     -5.28495786	     -1.49985930	     -6.59989280	      0.76068536	     -7.04331693	     -2.56655856	     33.90682888	    109.94419933	      3.67874957	    -16.21373884	     19.16636260	     33.05012915	    106.51804799
      1.17000000	     -0.99036540	     -1.25293192	     10.78007835	      1.17595576	      0.94273838	     -0.17507653	     25.59837934	     -1.04401762	      2.51267265	      4.31065741	      0.07523516	      5.71055109	      4.60337040	     -7.44093963	    -13.50324701	      0.03618943	      7.20440272	      7.19574210	      0.12558939	     21.23361334	     16.00422014	     -7.44093963	     -5.32922823	     -1.16766452	     -7.10082236	      0.58960305	     -7.15430962	     -2.34816207	     33.55536547	    109.95170822	      4.23546406	    -16.05920899	     19.56104692	     32.78994296	    106.65825403
      1.18000000	     -0.88502417	     -1.51808700	     11.18059329	      1.18839040	      0.94180832	     -0.17476042	     25.25742047	     -0.70866782	      2.40139746	      5.06145038	      0.08833897	      5.17976665	      3.80517296	     -7.44182831	    -13.79339030	     -0.49840805	      7.13113340	      8.18471160	      0.14285017	     21.11246072	     15.70459682	     -7.44182831	     -5.44613037	     -0.76408100	     -7.51901480	      0.38161099	     -7.28936644	     -2.34078396	     33.33807432	    109.92566132	      4.62713184	    -15.87719094	     19.61621102	     32.85295107	    106.69218859
      1.19000000	     -0.81466683	     -1.81285942	     11.48301157	      1.20104285	      0.94104929	     -0.17423804	     24.91572356	     -0.27994624	      2.52596178	      5.79187834	      0.10108735	      4.07321455	      2.69305980	     -7.44280950	    -13.99441215	     -1.05461767	      7.05232816	      9.28003935	      0.16196724	     20.82216294	     15.38981211	     -7.44280950	     -5.47871194	     -0.37206157	     -7.83228142	      0.18318887	     -7.36055278	     -2.26483463	     33.08022451	    109.89386922	      4.91687725	    -15.63217025	     19.72374888	     32.91783827	    106.72540319
      1.20000000	     -0.81783080	     -2.12339726	     11.70388274	      1.21387587	      0.94040792	     -0.17359514	     24.55992675	      0.23308045	      3.16962722	      6.31298397	      0.11018236	      2.08852097	      0.60298471	     -7.44471091	    -14.06523205	     -1.58503692	      6.98751089	     10.46901539	      0.18271879	     20.37573548	     15.01158596	     -7.44471091	     -5.38453403	      0.05373471	     -8.08212115	     -0.01796864	     -7.46671059	     -2.08725977	     32.73585706	    109.83808785	      5.12378998	    -15.39829809	     19.93357295	     32.96815131	    106.75484187
      1.21000000	     -0.76125612	     -2.42802778	     11.94959875	      1.22686019	      0.94009310	     -0.17297660	     24.17158531	      0.72338986	      3.38848999	      6.89587578	      0.12035574	      0.36651338	     -0.67047172	     -7.44623882	    -14.08771885	     -2.13430587	      6.78895871	     11.82016801	      0.20630085	     19.66490614	     14.50494952	     -7.44623882	     -5.37046796	      0.47392726	     -8.29490981	     -0.25820947	     -7.57832135	     -1.99966034	     32.41639581	    109.79281074	      5.30829240	    -15.18178065	     20.09748241	     33.10569776	    106.76027351
      1.22000000	     -0.63570566	     -2.69833005	     12.14192827	      1.23998254	      0.94009195	     -0.17232226	     23.73087083	      1.20803763	      3.33675644	      7.51333407	      0.13113242	     -0.84458506	     -1.19718953	     -7.44684299	    -14.07169468	     -2.64132327	      6.58081832	     13.40340563	      0.23393356	     18.79379583	     13.99768582	     -7.44684299	     -5.43610956	      0.88184411	     -8.42156389	     -0.50704292	     -7.64252768	     -1.97211173	     32.13072321	    109.77117000	      5.43675803	    -14.93193516	     20.21794554	     33.28155228	    106.77121458
      1.23000000	     -0.68141234	     -3.02370542	     12.29387312	      1.25318479	      0.94007219	     -0.17151974	     23.40374746	      1.80523202	      3.99715967	      7.95138481	      0.13877785	     -3.08160639	     -3.30139661	     -7.44941705	    -13.78528114	     -3.12777058	      6.68448698	     15.09171823	      0.26340017	     17.63809720	     13.00378967	     -7.44941705	     -5.25864224	      1.31491506	     -8.57106449	     -0.72764827	     -7.72484834	     -1.81021873	     31.72080243	    109.74641546	      5.45238053	    -14.72384925	     20.55265246	     33.39389124	    106.72012161
      1.24000000	     -0.55212425	     -3.33654257	     12.48175587	      1.26652932	      0.94044862	     -0.17083158	     22.97772098	      2.36118452	      3.81630600	      8.62876677	      0.15060039	     -3.92644935	     -3.53582486	     -7.45002402	    -13.47323146	     -3.68350297	      6.44711674	     17.12120366	      0.29882138	     16.35728160	     12.44775166	     -7.45002402	     -5.28820523	      1.78298024	     -8.67219636	     -0.99075558	     -7.79444064	     -1.81792431	     31.47245153	    109.73059777	      5.45642264	    -14.48037762	     20.69379880	     33.59268789	    106.72763582
      1.25000000	     -0.48632179	     -3.67555645	     12.66122476	      1.27993117	      0.94089425	     -0.17006661	     22.64063360	      2.96573522	      3.75832727	      9.40181519	      0.16409263	     -4.66680028	     -4.07280056	     -7.45075213	    -12.92941215	     -4.24390037	      6.34420634	     19.37860258	      0.33822042	     14.80642789	     11.70306385	     -7.45075213	     -5.21914707	      2.25175391	     -8.76491691	     -1.23946838	     -7.84954948	     -1.80738531	     31.20493574	    109.71836429	      5.38203719	    -14.24656730	     20.88743081	     33.77785829	    106.73237337
      1.26000000	     -0.47819184	     -3.97007158	     12.80973015	      1.29330926	      0.94140248	     -0.16919135	     22.36072358	      3.56085189	      3.91795632	     10.25281168	      0.17894532	     -5.24773874	     -5.13215458	     -7.45227763	    -12.14686889	     -4.71233237	      6.40022709	     21.89864747	      0.38220350	     12.85577588	     10.56502874	     -7.45227763	     -5.09258051	      2.63845339	     -8.79063042	     -1.49149755	     -7.91211196	     -1.71686224	     30.89564623	    109.71224106	      5.28850843	    -14.06381202	     21.15058882	     33.92750528	    106.70289811
